<?xml version="1.0" standalone="no"?>
<!DOCTYPE svg PUBLIC "-//W3C//DTD SVG 20010904//EN"
 "http://www.w3.org/TR/2001/REC-SVG-20010904/DTD/svg10.dtd">
<svg version="1.0" xmlns="http://www.w3.org/2000/svg"
 width="16.000000pt" height="16.000000pt" viewBox="0 0 16.000000 16.000000"
 preserveAspectRatio="xMidYMid meet">
<metadata>
Created by potrace 1.11, written by Peter Selinger 2001-2013
</metadata>
<g transform="translate(0.000000,16.000000) scale(0.001578,-0.001578)"
fill="#000000" stroke="none">
<path d="M220 8670 l0 -300 70 0 70 0 0 128 1 127 56 -127 57 -128 45 0 46 0
57 128 57 127 1 -127 0 -128 70 0 70 0 0 300 0 300 -63 0 -64 0 -84 -190 c-46
-104 -86 -190 -89 -190 -3 0 -42 84 -87 188 l-82 187 -65 3 -66 3 0 -301z"/>
<path d="M1283 8778 c-45 -106 -102 -241 -127 -300 l-45 -108 77 0 77 0 28 75
28 75 102 0 102 0 29 -75 29 -75 73 0 c53 0 74 4 73 13 0 6 -55 140 -123 297
l-122 285 -60 3 -60 3 -81 -193z m145 -146 c-28 -2 -52 -1 -55 1 -2 3 8 35 23
72 l27 68 28 -69 27 -69 -50 -3z"/>
<path d="M2035 8958 c-3 -7 -4 -141 -3 -298 l3 -285 70 0 70 0 0 295 0 295
-68 3 c-48 2 -69 -1 -72 -10z"/>
<path d="M2634 8946 c-63 -29 -96 -73 -101 -135 -9 -96 47 -145 210 -185 116
-29 137 -40 137 -71 0 -51 -78 -84 -151 -65 -38 10 -51 20 -81 63 -12 15 -20
16 -76 6 -68 -12 -69 -15 -36 -80 64 -126 304 -159 420 -57 47 41 64 77 64
134 0 94 -65 147 -225 184 -119 28 -153 59 -103 94 14 10 44 16 76 16 48 0 58
-4 87 -33 l34 -34 53 23 c29 12 54 27 56 32 6 18 -71 94 -113 113 -61 28 -185
26 -251 -5z"/>
<path d="M3472 8944 c-94 -47 -142 -139 -142 -272 0 -111 21 -173 78 -232 59
-60 133 -86 225 -76 152 16 239 123 241 296 1 113 -21 178 -83 240 -54 54
-100 70 -198 70 -54 0 -80 -6 -121 -26z m206 -121 c35 -22 52 -73 52 -157 0
-129 -47 -185 -144 -174 -83 10 -116 62 -116 183 0 82 31 145 80 162 40 14 94
8 128 -14z"/>
<path d="M4210 8670 l0 -300 70 0 70 0 2 163 3 162 114 -162 114 -163 58 0 59
0 0 300 0 300 -70 0 -70 0 -2 -165 -3 -164 -115 164 -114 165 -58 0 -58 0 0
-300z"/>
<path d="M5450 8655 l0 -296 168 3 c197 4 230 14 272 89 24 42 25 52 25 199 0
147 -1 157 -25 200 -17 29 -41 53 -70 70 -42 23 -56 25 -207 28 l-163 4 0
-297z m322 212 c62 -26 73 -60 73 -219 0 -123 -2 -139 -21 -165 -35 -47 -69
-58 -191 -61 l-113 -4 0 237 0 238 108 -5 c65 -3 121 -11 144 -21z"/>
<path d="M6140 8753 c0 -109 5 -218 11 -243 24 -106 101 -160 229 -160 95 0
151 26 195 88 l30 44 3 234 3 234 -29 0 -30 0 -4 -207 c-4 -227 -13 -265 -69
-305 -40 -30 -126 -35 -182 -10 -77 34 -81 51 -85 305 l-3 217 -35 0 -34 0 0
-197z"/>
<path d="M6860 8655 l0 -295 30 0 30 0 0 130 0 130 63 0 c78 0 83 -4 173 -149
l69 -110 43 -1 c32 0 41 3 36 13 -4 6 -42 64 -84 128 l-76 116 50 24 c74 35
99 77 94 158 -4 58 -7 66 -40 97 -50 45 -91 54 -250 54 l-138 0 0 -295z m282
225 c65 -18 89 -61 72 -129 -14 -56 -54 -71 -186 -71 l-108 0 0 98 c0 54 3
102 7 105 10 11 174 8 215 -3z"/>
<path d="M7582 8662 c-67 -158 -122 -291 -122 -296 0 -4 17 -6 37 -4 36 3 37
5 71 86 l35 83 141 -3 140 -3 35 -82 35 -83 38 0 c21 0 38 1 38 3 0 1 -55 133
-123 292 l-124 290 -39 3 -39 3 -123 -289z m221 55 l55 -127 -114 0 c-63 0
-114 1 -114 3 0 2 18 46 41 98 22 52 47 109 55 128 8 19 16 32 18 30 3 -2 29
-61 59 -132z"/>
<path d="M8220 8656 l0 -296 163 0 c179 0 223 11 265 64 47 60 37 165 -21 219
l-30 28 23 24 c33 35 39 126 12 174 -34 63 -75 76 -254 79 l-158 3 0 -295z
m283 223 c20 -5 46 -20 57 -31 28 -31 27 -89 -4 -125 -24 -27 -27 -28 -145
-32 l-121 -3 0 101 0 101 88 0 c48 0 104 -5 125 -11z m18 -249 c54 -15 84 -53
84 -106 0 -34 -6 -49 -28 -71 -27 -27 -31 -28 -157 -32 l-130 -3 0 111 0 111
98 0 c53 0 113 -5 133 -10z"/>
<path d="M8900 8655 l0 -295 190 0 190 0 0 30 0 30 -155 0 -155 0 0 265 0 265
-35 0 -35 0 0 -295z"/>
<path d="M9470 8655 l0 -295 210 0 210 0 0 30 0 30 -175 0 -175 0 0 110 0 110
156 0 155 0 -3 28 -3 27 -152 3 -153 3 0 94 0 95 175 0 175 0 0 30 0 30 -210
0 -210 0 0 -295z"/>
<path d="M17 8013 c-4 -3 -7 -1108 -7 -2455 l0 -2448 2415 0 2415 0 -2 2453
-3 2452 -2406 3 c-1323 1 -2409 -1 -2412 -5z m1947 -1911 c236 -543 432 -991
436 -995 4 -4 206 440 450 988 l442 995 314 0 314 0 0 -1495 0 -1495 -335 0
-335 0 0 702 c0 386 -4 698 -8 693 -5 -6 -148 -322 -318 -703 l-309 -692 -210
2 -209 3 -306 687 c-168 377 -309 690 -313 694 -4 4 -7 -306 -7 -689 l0 -697
-340 0 -340 0 0 1495 0 1495 323 0 322 -1 429 -987z"/>
<path d="M5220 5560 l0 -2450 2410 0 2410 0 0 2450 0 2450 -2410 0 -2410 0 0
-2450z m2553 1406 c238 -37 431 -109 564 -210 160 -121 267 -328 313 -603 53
-317 55 -959 4 -1263 -92 -547 -375 -764 -1059 -809 -88 -6 -395 -11 -682 -11
l-523 0 0 1461 0 1461 638 -5 c535 -3 654 -7 745 -21z"/>
<path d="M6710 5535 l0 -1177 478 5 c525 5 561 8 742 70 265 90 384 266 420
618 8 79 10 254 7 555 -4 393 -7 449 -25 534 -38 176 -79 259 -172 352 -81 79
-174 127 -312 162 -160 41 -254 48 -705 53 l-433 5 0 -1177z"/>
<path d="M686 2600 c-32 -49 -33 -60 -2 -60 16 0 36 14 60 42 20 23 36 45 36
50 0 4 -15 8 -34 8 -28 0 -38 -6 -60 -40z"/>
<path d="M5344 2506 c-129 -56 -133 -311 -7 -371 58 -28 143 -24 191 7 119 79
103 311 -25 364 -41 18 -119 17 -159 0z m147 -95 c36 -44 32 -150 -7 -192 -26
-28 -89 -25 -119 6 -21 20 -25 34 -25 84 0 69 13 104 44 120 30 15 88 5 107
-18z"/>
<path d="M5740 2320 l0 -200 45 0 45 0 0 75 0 75 58 0 c122 0 172 35 172 121
0 39 -5 55 -27 79 -35 38 -79 49 -200 50 l-93 0 0 -200z m204 110 c18 -7 26
-17 26 -34 0 -33 -26 -46 -89 -46 l-51 0 0 38 c0 21 3 42 7 45 10 10 78 8 107
-3z"/>
<path d="M6170 2475 l0 -45 60 0 60 0 0 -155 0 -155 45 0 45 0 0 155 0 155 60
0 60 0 0 45 0 45 -165 0 -165 0 0 -45z"/>
<path d="M6620 2320 l0 -200 45 0 45 0 0 200 0 200 -45 0 -45 0 0 -200z"/>
<path d="M6860 2321 l0 -201 45 0 44 0 3 82 3 83 35 -82 c33 -78 37 -83 66
-83 28 0 33 5 71 88 l41 87 1 -87 1 -88 45 0 45 0 0 200 0 200 -43 0 -43 0
-54 -122 c-29 -68 -56 -126 -59 -130 -4 -4 -32 50 -62 120 l-55 127 -42 3 -42
3 0 -200z"/>
<path d="M7400 2320 l0 -200 45 0 45 0 0 200 0 200 -45 0 -45 0 0 -200z"/>
<path d="M7698 2499 c-45 -23 -58 -45 -58 -96 0 -63 29 -84 175 -125 42 -12
50 -18 50 -38 0 -53 -100 -63 -141 -14 -18 22 -26 24 -62 18 -23 -4 -42 -9
-42 -13 0 -18 44 -74 72 -91 106 -64 268 -6 268 97 0 69 -36 99 -154 129 -37
9 -70 23 -73 31 -16 43 79 61 118 22 20 -20 25 -20 60 -9 22 7 39 15 39 17 0
2 -7 15 -17 29 -40 61 -160 83 -235 43z"/>
<path d="M8200 2500 c-8 -16 -121 -278 -157 -367 -4 -10 9 -13 45 -13 l49 0
21 50 21 50 66 0 66 0 21 -50 21 -50 48 0 c27 0 49 3 48 8 0 4 -37 93 -82 197
l-82 190 -37 3 c-29 2 -39 -1 -48 -18z m74 -188 c7 -20 4 -22 -29 -22 -26 0
-36 4 -32 13 2 6 10 29 18 49 l13 38 12 -28 c6 -16 15 -38 18 -50z"/>
<path d="M8540 2475 l0 -45 60 0 60 0 0 -155 0 -155 45 0 45 0 0 155 0 155 60
0 60 0 0 45 0 45 -165 0 -165 0 0 -45z"/>
<path d="M8990 2320 l0 -200 45 0 45 0 0 200 0 200 -45 0 -45 0 0 -200z"/>
<path d="M9314 2506 c-129 -56 -133 -311 -7 -371 58 -28 143 -24 191 7 119 79
103 311 -25 364 -41 18 -119 17 -159 0z m147 -95 c36 -44 32 -150 -7 -192 -26
-28 -89 -25 -119 6 -21 20 -25 34 -25 84 0 69 13 104 44 120 30 15 88 5 107
-18z"/>
<path d="M9710 2320 l0 -200 45 0 45 0 0 106 c0 126 -2 126 90 -10 63 -92 66
-95 103 -96 l37 0 0 200 0 200 -45 0 -45 0 0 -112 0 -112 -77 112 c-76 109
-79 112 -115 112 l-38 0 0 -200z"/>
<path d="M40 2310 l0 -200 50 0 50 0 0 81 c0 79 0 80 23 73 12 -4 24 -10 27
-14 3 -4 25 -37 49 -73 l43 -67 55 0 55 0 -58 82 -57 81 28 20 c35 26 57 79
49 115 -9 38 -52 80 -93 92 -20 5 -78 10 -128 10 l-93 0 0 -200z m218 78 c4
-33 -25 -48 -89 -48 -39 0 -39 0 -39 40 l0 41 63 -3 c59 -3 62 -4 65 -30z"/>
<path d="M550 2310 l0 -200 150 0 150 0 0 40 0 40 -100 0 -100 0 0 40 0 40 90
0 90 0 0 45 0 45 -90 0 -90 0 0 30 0 30 100 0 100 0 0 45 0 45 -150 0 -150 0
0 -200z"/>
<path d="M1050 2310 l0 -200 50 0 49 0 3 102 3 101 70 -101 70 -101 43 -1 42
0 -2 198 -3 197 -47 3 -47 3 -3 -108 -3 -108 -74 108 c-73 104 -76 107 -113
107 l-38 0 0 -200z"/>
<path d="M1655 2496 c-97 -42 -134 -199 -73 -308 74 -131 282 -107 326 39 34
113 -8 233 -95 269 -41 18 -119 17 -158 0z m114 -77 c42 -15 51 -35 51 -114 0
-57 -3 -69 -25 -90 -30 -30 -83 -33 -116 -6 -18 14 -23 31 -27 80 -5 73 10
116 47 130 35 13 33 13 70 0z"/>
<path d="M2080 2498 c0 -7 31 -96 69 -198 l69 -185 44 -3 c41 -3 46 -1 56 25
31 76 132 357 132 365 0 5 -21 8 -47 6 l-47 -3 -46 -132 -46 -132 -46 132 -45
132 -47 3 c-33 2 -46 -1 -46 -10z"/>
<path d="M2665 2319 c-44 -105 -81 -195 -83 -200 -2 -5 19 -9 46 -9 l49 0 21
50 21 50 66 0 66 0 21 -50 21 -50 49 0 c44 0 49 2 44 18 -4 9 -42 99 -84 199
l-77 183 -40 0 -40 0 -80 -191z m149 -17 c7 -20 4 -22 -29 -22 -26 0 -36 4
-32 13 2 6 10 29 18 49 l13 38 12 -28 c6 -16 15 -38 18 -50z"/>
<path d="M3124 2496 c-3 -8 -4 -27 -2 -43 3 -27 5 -28 66 -31 l62 -3 0 -154 0
-155 45 0 45 0 0 155 0 155 60 0 60 0 0 45 0 45 -165 0 c-134 0 -167 -3 -171
-14z"/>
<path d="M3640 2311 l0 -201 50 0 50 0 -2 198 -3 197 -47 3 -48 3 0 -200z"/>
<path d="M4025 2496 c-97 -42 -134 -199 -73 -308 74 -131 282 -107 326 39 34
113 -8 233 -95 269 -41 18 -119 17 -158 0z m114 -77 c42 -15 51 -35 51 -114 0
-57 -3 -69 -25 -90 -30 -30 -83 -33 -116 -6 -18 14 -23 31 -27 80 -5 73 10
116 47 130 35 13 33 13 70 0z"/>
<path d="M4480 2310 l0 -200 50 0 49 0 3 102 3 101 70 -101 70 -101 43 -1 42
0 -2 198 -3 197 -47 3 -47 3 -3 -108 -3 -108 -74 108 c-73 104 -76 107 -113
107 l-38 0 0 -200z"/>
<path d="M5396 1760 l-26 -40 23 0 c14 0 31 11 43 28 36 49 37 52 11 52 -17 0
-32 -12 -51 -40z"/>
<path d="M7726 1760 l-26 -40 23 0 c14 0 31 11 43 28 36 49 37 52 11 52 -17 0
-32 -12 -51 -40z"/>
<path d="M187 1713 c-3 -5 -35 -80 -72 -168 -37 -88 -74 -175 -81 -192 -14
-32 -14 -33 11 -33 21 0 29 9 50 55 l24 56 97 -3 97 -3 20 -52 c17 -47 23 -53
48 -53 l28 0 -23 53 c-13 28 -51 118 -86 200 -55 130 -65 147 -85 147 -13 0
-26 -3 -28 -7z m66 -150 l35 -83 -74 0 -74 0 13 33 c40 93 60 137 62 135 1 -2
18 -40 38 -85z"/>
<path d="M520 1521 l0 -201 25 0 c25 0 25 1 25 85 l0 85 45 0 45 0 56 -85 c45
-67 62 -85 81 -85 12 0 23 3 23 8 -1 4 -24 43 -53 87 l-53 79 41 21 c52 26 72
78 51 130 -24 56 -55 69 -178 74 l-108 3 0 -201z m221 139 c14 -8 19 -21 19
-50 0 -59 -18 -70 -111 -70 l-79 0 0 65 0 65 76 0 c41 0 84 -5 95 -10z"/>
<path d="M1012 1703 c-103 -50 -125 -246 -39 -339 61 -65 166 -69 234 -9 27
23 28 24 9 42 -14 13 -20 15 -23 5 -14 -38 -111 -54 -163 -27 -58 30 -80 183
-35 251 36 55 124 66 178 24 23 -18 57 -18 57 -1 0 10 -40 46 -67 60 -31 16
-113 13 -151 -6z"/>
<path d="M1370 1520 l0 -200 25 0 c25 0 25 1 25 90 l0 90 110 0 110 0 0 -90
c0 -89 0 -90 25 -90 l25 0 0 200 0 200 -25 0 c-25 0 -25 -1 -25 -85 l0 -85
-110 0 -110 0 0 85 c0 84 0 85 -25 85 l-25 0 0 -200z"/>
<path d="M1830 1520 l0 -200 25 0 25 0 0 200 0 200 -25 0 -25 0 0 -200z"/>
<path d="M1994 1706 c-11 -27 7 -36 72 -36 l64 0 0 -175 0 -175 25 0 25 0 0
175 0 174 68 3 c59 3 67 5 67 23 0 19 -8 20 -158 23 -131 2 -158 0 -163 -12z"/>
<path d="M2430 1520 l0 -200 140 0 c133 0 140 1 140 20 0 19 -7 20 -115 20
l-115 0 0 70 0 70 100 0 100 0 0 25 0 25 -100 0 -100 0 0 60 0 60 115 0 115 0
0 25 0 25 -140 0 -140 0 0 -200z"/>
<path d="M2912 1703 c-103 -50 -125 -246 -39 -339 61 -65 166 -69 234 -9 27
23 28 24 9 42 -14 13 -20 15 -23 5 -14 -38 -111 -54 -163 -27 -58 30 -80 183
-35 251 36 55 124 66 178 24 23 -18 57 -18 57 -1 0 10 -40 46 -67 60 -31 16
-113 13 -151 -6z"/>
<path d="M3234 1706 c-11 -27 7 -36 72 -36 l64 0 0 -175 0 -175 25 0 25 0 0
175 0 174 68 3 c59 3 67 5 67 23 0 19 -8 20 -158 23 -131 2 -158 0 -163 -12z"/>
<path d="M3660 1575 c0 -160 9 -197 54 -233 32 -24 100 -37 146 -27 17 4 47
20 65 36 44 39 57 99 53 250 -3 110 -4 114 -25 117 -23 3 -23 2 -23 -120 -1
-202 -18 -238 -115 -238 -37 0 -60 6 -76 19 -23 18 -24 26 -29 178 -5 155 -5
158 -27 161 -23 3 -23 3 -23 -143z"/>
<path d="M4120 1521 l0 -201 25 0 c25 0 25 1 25 85 l0 85 45 0 45 0 56 -85
c45 -67 62 -85 81 -85 12 0 23 3 23 8 -1 4 -24 43 -53 87 l-53 79 41 21 c52
26 72 78 51 130 -24 56 -55 69 -178 74 l-108 3 0 -201z m221 139 c14 -8 19
-21 19 -50 0 -59 -18 -70 -111 -70 l-79 0 0 65 0 65 76 0 c41 0 84 -5 95 -10z"/>
<path d="M4550 1520 l0 -200 140 0 c133 0 140 1 140 20 0 19 -7 20 -115 20
l-115 0 0 70 0 70 100 0 100 0 0 25 0 25 -100 0 -100 0 0 60 0 60 115 0 115 0
0 25 0 25 -140 0 -140 0 0 -200z"/>
<path d="M5270 1480 l0 -200 140 0 c133 0 140 1 140 20 0 19 -7 20 -115 20
l-115 0 0 70 0 70 100 0 100 0 0 25 0 25 -100 0 -100 0 0 60 0 60 115 0 115 0
0 25 0 25 -140 0 -140 0 0 -200z"/>
<path d="M5720 1480 l0 -200 25 0 25 0 0 158 0 157 103 -157 c82 -127 106
-158 125 -158 l22 0 0 200 c0 192 -1 200 -20 200 -18 0 -20 -8 -22 -162 l-3
-162 -105 162 c-84 130 -109 162 -127 162 l-23 0 0 -200z"/>
<path d="M6210 1480 l0 -200 140 0 c133 0 140 1 140 20 0 19 -7 20 -115 20
l-115 0 0 75 0 75 100 0 c93 0 100 1 100 20 0 19 -7 20 -100 20 l-100 0 0 60
0 60 115 0 115 0 0 25 0 25 -140 0 -140 0 0 -200z"/>
<path d="M6660 1480 l0 -200 25 0 c25 0 25 1 25 90 l0 90 31 0 c47 0 65 -15
120 -100 40 -64 56 -80 75 -80 13 0 24 2 24 5 0 3 -24 43 -54 89 l-54 84 25 7
c69 17 98 115 51 170 -28 32 -79 44 -185 45 l-83 0 0 -200z m220 140 c23 -12
33 -52 20 -84 -11 -30 -60 -46 -137 -46 l-53 0 0 70 0 70 76 0 c41 0 84 -4 94
-10z"/>
<path d="M7188 1659 c-58 -30 -83 -86 -82 -184 0 -86 13 -122 57 -163 49 -46
153 -51 196 -11 21 20 21 20 21 -1 0 -13 7 -20 20 -20 19 0 20 7 20 105 l0
105 -75 0 c-68 0 -75 -2 -75 -20 0 -18 7 -20 55 -20 60 0 61 -2 45 -62 -14
-48 -43 -68 -100 -68 -81 0 -120 50 -120 155 0 63 17 111 50 140 33 30 120 28
153 -3 22 -21 57 -22 57 -3 0 10 -40 46 -67 60 -34 17 -114 12 -155 -10z"/>
<path d="M7600 1480 l0 -200 140 0 c133 0 140 1 140 20 0 19 -7 20 -115 20
l-115 0 0 70 0 70 100 0 100 0 0 25 0 25 -100 0 -100 0 0 60 0 60 115 0 115 0
0 25 0 25 -140 0 -140 0 0 -200z"/>
<path d="M8020 1660 c0 -18 7 -20 65 -20 l65 0 0 -180 0 -180 25 0 25 0 0 180
0 180 65 0 c58 0 65 2 65 20 0 19 -7 20 -155 20 -148 0 -155 -1 -155 -20z"/>
<path d="M8487 1673 c-4 -3 -7 -93 -7 -200 l0 -193 25 0 25 0 0 200 c0 187 -1
200 -18 200 -10 0 -22 -3 -25 -7z"/>
<path d="M8804 1666 c-37 -16 -69 -55 -85 -103 -16 -51 -7 -171 17 -212 39
-66 125 -94 204 -67 29 10 48 12 54 6 6 -6 23 -10 40 -10 l29 0 -22 24 c-22
24 -22 25 -5 57 28 53 26 182 -5 235 -42 75 -144 106 -227 70z m161 -56 c35
-33 48 -83 42 -157 -6 -77 -16 -91 -48 -70 -13 8 -36 17 -51 21 -25 6 -28 4
-28 -19 0 -16 6 -25 16 -25 8 0 25 -5 36 -11 29 -16 6 -29 -54 -29 -64 0 -103
33 -117 101 -20 92 7 180 62 205 44 20 112 12 142 -16z"/>
<path d="M9230 1533 c0 -163 9 -198 62 -237 37 -27 142 -29 181 -3 59 38 67
67 67 235 0 145 -1 152 -20 152 -19 0 -20 -7 -20 -135 0 -193 -17 -225 -118
-225 -94 0 -111 38 -112 238 0 115 -1 122 -20 122 -19 0 -20 -7 -20 -147z"/>
<path d="M9720 1480 l0 -200 140 0 c133 0 140 1 140 20 0 19 -7 20 -115 20
l-115 0 0 75 0 75 100 0 c93 0 100 1 100 20 0 19 -7 20 -100 20 l-100 0 0 60
0 60 115 0 115 0 0 25 0 25 -140 0 -140 0 0 -200z"/>
</g>
</svg>
